<svg width="130" height="130" xmlns="http://www.w3.org/2000/svg" xmlns:xlink="http://www.w3.org/1999/xlink" overflow="hidden"><defs><clipPath id="clip0"><rect x="1441" y="705" width="130" height="130"/></clipPath></defs><g clip-path="url(#clip0)" transform="translate(-1441 -705)"><path d="M1533.19 772.09 1533.19 796.045 1509.9 796.045 1510.1 798.034C1512.12 807.947 1520.83 815.404 1531.27 815.404 1543.21 815.404 1552.89 805.665 1552.89 793.65 1552.89 783.138 1545.48 774.367 1535.63 772.338ZM1485.14 748.246 1485.14 791.754 1528.65 791.754 1528.65 748.246ZM1482.24 718.412 1457.01 761.92 1480.39 761.92 1480.39 743.955 1497.06 743.955ZM1506 705C1541.9 705 1571 734.102 1571 770 1571 805.898 1541.9 835 1506 835 1470.1 835 1441 805.898 1441 770 1441 734.102 1470.1 705 1506 705Z" fill-rule="evenodd"/></g></svg>